<svg width="500" height="500" version="1.1" xmlns="http://www.w3.org/2000/svg"><path fill="rgb(0,0,0)" stroke="rgb(0,0,0)" stroke-width="1" opacity="1" d="M 0 0 L 500 0 L 500 500 L 0 500 L 0 0 Z M 255 32 L 256 33 Q 257 35 258 33 L 255 32 Z M 266 32 L 266 34 L 268 33 L 266 32 Z M 228 33 L 226 38 L 234 38 L 234 36 L 230 35 Q 231 32 228 33 Z M 247 34 L 246 35 Q 242 34 243 37 L 236 40 L 236 42 L 235 49 L 233 49 L 234 200 L 234 65 L 235 65 L 235 200 L 234 201 Q 232 207 235 209 L 235 256 L 232 256 L 232 280 L 233 281 L 233 320 L 234 321 L 234 419 L 232 418 Q 229 419 230 417 L 231 415 Q 227 416 228 414 L 228 412 L 228 353 L 226 352 L 226 410 L 225 411 L 226 413 L 226 414 L 225 412 L 215 405 L 212 401 L 209 401 Q 210 398 208 399 L 206 396 L 191 385 L 188 382 Q 190 380 188 379 Q 181 381 183 376 L 187 376 L 182 372 Q 179 371 180 374 L 178 374 L 172 370 L 173 366 L 172 366 L 170 366 L 155 356 L 157 351 L 153 352 L 146 346 L 143 346 L 141 343 L 132 337 L 132 335 L 129 335 Q 130 332 128 333 Q 123 331 127 329 Q 130 330 128 326 Q 124 325 125 329 Q 119 328 116 322 Q 112 323 113 320 L 110 319 Q 113 317 112 314 L 108 316 Q 105 315 108 313 Q 110 314 109 310 L 105 310 L 105 312 L 106 313 Q 102 314 103 311 L 101 311 L 103 310 L 104 306 Q 100 305 99 308 Q 100 310 98 309 L 96 306 L 93 305 L 95 302 L 98 303 L 97 302 L 106 300 L 115 296 L 122 296 L 129 292 L 136 292 L 138 289 L 142 290 Q 146 291 147 287 L 152 287 L 161 283 L 168 277 Q 170 269 169 256 L 170 255 L 170 242 L 169 241 L 170 113 L 170 127 L 171 127 L 171 112 L 166 100 L 161 95 L 145 95 L 141 99 L 140 98 Q 137 97 138 100 L 136 100 L 136 102 L 134 102 L 133 105 L 134 107 L 133 110 Q 131 111 134 112 L 136 108 L 136 104 L 139 102 L 137 105 L 138 110 L 138 192 L 137 193 L 137 208 L 138 209 L 138 255 L 134 258 L 130 257 Q 127 256 128 259 L 100 267 L 98 267 L 92 268 L 89 271 L 81 270 L 82 273 L 76 274 L 75 272 L 72 274 Q 73 276 67 275 L 67 277 L 66 276 L 64 278 L 53 280 L 51 283 L 49 284 Q 45 283 47 287 L 44 287 L 44 291 L 40 292 Q 38 299 42 302 L 42 301 L 44 302 Q 42 306 46 305 L 47 309 L 58 317 L 57 320 L 62 320 L 75 331 Q 77 330 76 333 L 79 333 L 79 336 L 82 337 Q 84 336 83 339 L 88 341 Q 92 343 89 345 L 95 347 L 96 350 L 91 351 L 91 352 Q 97 350 96 354 L 102 353 L 103 356 Q 107 360 114 362 L 115 365 L 122 369 L 123 372 L 129 375 Q 131 374 130 377 L 137 381 L 139 385 L 153 394 L 155 398 L 153 399 L 153 400 Q 157 401 159 399 L 162 402 L 161 402 L 161 404 L 160 406 L 163 404 Q 166 404 167 407 Q 166 409 170 408 L 171 412 L 175 412 L 180 417 Q 182 416 181 419 L 179 418 L 176 419 L 176 422 Q 180 421 179 424 L 187 428 L 188 428 L 182 424 L 181 422 L 185 420 L 187 424 L 198 432 L 195 434 L 201 435 Q 203 434 202 437 L 204 437 L 204 440 L 210 441 L 212 444 L 212 446 L 211 448 L 215 447 Q 218 446 217 449 Q 220 450 218 452 L 225 455 L 224 458 L 220 460 L 224 462 L 226 456 L 229 457 Q 231 456 230 459 L 236 464 Q 235 466 239 465 L 240 469 L 242 468 L 244 469 Q 246 468 245 471 L 257 470 L 264 465 L 266 460 Q 267 455 265 454 Q 264 449 266 448 L 266 433 L 265 432 L 265 384 L 266 383 L 266 90 L 265 89 Q 264 83 268 85 L 269 89 L 271 88 L 277 94 Q 279 93 278 96 L 298 110 L 299 113 L 302 114 Q 304 113 303 116 L 309 119 L 315 126 L 315 127 L 319 127 Q 318 130 321 129 L 321 132 L 326 133 L 324 137 L 325 138 L 329 136 L 331 140 L 335 141 L 343 148 Q 346 147 344 151 L 346 151 L 345 153 Q 346 155 351 154 L 356 158 L 357 162 Q 361 161 362 165 Q 361 167 364 166 L 364 168 L 367 168 L 373 172 Q 374 175 371 174 L 371 177 L 376 176 L 387 183 L 393 189 Q 395 188 394 191 L 398 192 L 399 194 Q 396 193 397 196 L 401 195 L 404 199 Q 408 198 406 202 L 393 199 L 390 201 L 396 202 Q 400 201 399 204 L 395 205 L 393 204 L 388 207 L 373 210 L 370 212 L 368 211 Q 364 210 365 213 L 341 220 L 336 223 L 334 227 Q 331 228 332 224 L 328 226 L 329 233 L 329 235 L 330 237 L 330 256 L 329 257 L 329 288 L 330 289 L 330 393 L 331 394 L 330 402 Q 335 408 344 411 L 356 408 Q 358 409 357 407 Q 358 404 360 406 L 362 401 L 362 253 L 361 250 L 370 245 Q 377 247 381 244 L 380 243 Q 383 240 390 241 L 392 239 L 402 236 L 404 237 L 406 235 L 429 228 Q 433 227 434 230 L 440 228 L 442 225 Q 445 226 444 223 L 451 222 L 453 218 L 456 216 L 457 212 L 457 205 L 454 197 L 447 191 Q 444 192 445 188 L 442 187 L 431 178 Q 428 179 429 176 L 427 175 Q 424 176 425 173 L 420 170 Q 421 167 417 168 L 417 167 L 409 161 L 413 159 L 412 157 L 409 159 L 391 146 L 389 143 Q 379 138 372 129 L 369 129 Q 370 126 368 127 L 366 124 L 364 123 Q 361 124 362 122 L 357 118 L 357 116 L 353 116 L 353 114 L 354 112 L 352 113 L 345 108 Q 342 107 344 106 L 342 103 Q 337 104 336 102 L 334 99 L 332 97 L 332 96 Q 333 93 329 94 L 326 90 L 320 87 L 315 83 L 317 80 L 316 77 L 314 77 L 314 81 L 312 81 L 295 68 Q 296 64 293 63 Q 288 64 289 62 L 285 59 L 283 56 L 279 54 L 277 51 Q 272 51 270 47 L 272 46 L 271 42 Q 268 41 269 44 L 270 45 L 263 41 L 261 39 L 254 35 L 247 34 Z M 260 35 L 260 37 L 263 36 L 260 35 Z M 270 35 L 270 38 L 272 37 Q 273 34 270 35 Z M 230 45 L 228 47 L 228 320 L 230 319 L 230 49 L 232 48 L 232 47 L 230 45 Z M 286 48 Q 285 51 288 50 Q 289 47 286 48 Z M 282 51 L 282 53 L 285 54 L 284 53 Q 285 50 282 51 Z M 286 54 L 287 57 Q 289 58 288 55 L 286 54 Z M 312 64 L 313 66 L 319 66 L 319 64 L 312 64 Z M 225 65 L 224 95 L 225 95 L 225 65 Z M 299 66 L 299 68 L 304 71 L 305 67 L 299 66 Z M 306 69 L 306 71 L 310 73 Q 311 77 313 74 Q 315 75 314 72 L 306 69 Z M 318 69 Q 317 73 320 72 Q 321 68 318 69 Z M 324 80 L 323 82 Q 328 84 327 81 L 326 81 L 324 80 Z M 332 86 Q 329 87 331 89 L 331 90 L 336 90 Q 338 84 332 86 Z M 268 90 L 268 94 L 270 95 Q 272 89 268 90 Z M 272 94 Q 271 97 274 96 Q 275 93 272 94 Z M 130 96 L 132 101 L 133 99 Q 134 94 130 96 Z M 174 96 Q 173 100 176 99 Q 177 95 174 96 Z M 337 96 L 335 97 L 336 99 L 339 98 Q 340 95 337 96 Z M 346 96 L 348 98 Q 349 95 346 96 Z M 276 97 L 276 100 L 278 99 Q 279 96 276 97 Z M 348 98 L 348 101 L 352 102 Q 354 96 348 98 Z M 171 100 L 171 103 L 173 104 Q 174 99 171 100 Z M 282 104 Q 281 107 285 106 Q 286 103 282 104 Z M 274 105 L 272 107 Q 271 110 275 108 L 274 105 Z M 288 106 L 288 109 L 290 110 Q 291 105 288 106 Z M 349 107 L 350 109 L 351 109 L 349 107 Z M 284 110 L 279 112 L 287 112 Q 288 109 284 110 Z M 291 110 Q 290 114 295 112 Q 296 108 291 110 Z M 270 112 L 269 144 L 270 144 L 270 112 Z M 366 112 L 368 114 Q 369 111 366 112 Z M 174 113 L 175 143 L 175 130 L 176 129 L 176 114 L 174 113 Z M 305 121 L 305 124 L 304 127 Q 303 130 309 128 L 310 126 L 305 121 Z M 380 130 L 381 132 L 382 132 L 380 130 Z M 383 132 L 382 134 L 384 135 L 383 132 Z M 324 143 L 324 144 L 327 144 L 324 143 Z M 393 144 L 393 146 Q 397 145 398 149 Q 397 151 400 150 L 400 146 Q 396 147 397 144 L 393 144 Z M 401 144 L 401 146 L 409 145 L 401 144 Z M 338 146 L 336 148 L 338 148 L 339 149 L 338 146 Z M 413 148 L 413 150 L 416 151 Q 418 147 413 148 Z M 403 150 L 405 153 Q 408 154 407 152 L 403 150 Z M 336 154 L 336 158 Q 341 160 340 156 L 336 154 Z M 350 157 L 348 159 L 348 160 L 352 160 Q 354 156 350 157 Z M 340 158 Q 339 161 342 160 Q 343 157 340 158 Z M 416 160 L 415 162 L 432 174 Q 433 170 431 171 L 429 169 L 416 160 Z M 176 161 L 175 175 L 176 175 L 176 161 Z M 430 162 Q 429 166 432 165 Q 433 161 430 162 Z M 352 166 L 352 170 L 360 170 Q 358 165 352 166 Z M 361 172 L 360 176 L 366 176 L 366 174 L 361 172 Z M 135 175 L 135 255 L 135 209 L 136 208 L 136 178 L 135 175 Z M 270 176 L 269 208 L 270 208 L 270 176 Z M 439 178 L 439 180 L 443 182 Q 445 183 444 180 Q 443 177 439 178 Z M 371 182 L 373 186 Q 379 187 378 185 Q 376 181 371 182 Z M 447 184 L 444 187 Q 446 191 448 188 Q 449 183 447 184 Z M 384 187 L 384 189 L 388 191 Q 391 192 390 190 L 384 187 Z M 368 189 L 368 192 Q 373 194 372 190 L 368 189 Z M 385 192 L 385 194 L 387 193 L 385 192 Z M 455 192 L 456 195 L 458 194 Q 459 191 455 192 Z M 225 193 L 224 223 L 225 223 L 225 193 Z M 461 201 Q 458 207 462 209 L 463 209 L 461 201 Z M 384 203 Q 383 206 386 205 Q 387 202 384 203 Z M 342 208 L 342 210 Q 346 211 347 209 L 342 208 Z M 368 208 Q 367 211 371 210 Q 372 207 368 208 Z M 336 210 L 336 213 L 340 214 L 342 214 L 342 210 L 336 210 Z M 353 212 L 348 214 L 354 214 Q 355 211 353 212 Z M 344 214 L 344 215 L 348 215 L 344 214 Z M 460 214 L 458 216 L 459 221 L 462 219 L 461 216 Q 462 213 460 214 Z M 336 216 L 336 219 L 339 217 L 336 216 Z M 456 221 L 452 224 L 458 224 Q 460 220 456 221 Z M 324 224 L 324 229 L 324 231 L 323 234 L 326 232 L 326 225 L 324 224 Z M 270 225 L 269 239 L 270 239 L 270 225 Z M 431 230 L 429 231 L 430 233 L 433 232 Q 434 229 431 230 Z M 415 235 L 413 237 Q 412 239 415 238 Q 418 237 415 235 Z M 422 235 L 422 236 L 424 236 L 422 235 Z M 323 236 L 320 237 Q 319 241 322 241 L 322 256 L 324 256 L 324 241 L 323 236 Z M 428 238 L 428 240 L 432 240 L 428 238 Z M 270 240 L 268 242 L 268 272 L 269 273 L 269 287 L 268 288 L 268 321 L 269 322 L 269 335 L 268 336 L 268 416 L 269 417 L 268 452 L 270 453 L 270 240 Z M 380 246 L 380 247 L 384 248 Q 385 244 380 246 Z M 372 247 L 372 248 L 374 248 L 372 247 Z M 367 250 L 365 254 L 373 256 L 374 254 Q 368 254 367 250 Z M 379 252 L 378 254 L 381 253 L 379 252 Z M 80 256 Q 79 259 83 258 Q 84 255 80 256 Z M 121 256 L 122 257 L 123 258 Q 124 255 121 256 Z M 96 257 L 96 259 L 105 262 L 108 261 Q 107 257 102 258 L 100 258 L 96 257 Z M 326 257 L 326 287 L 328 287 L 328 258 L 326 257 Z M 90 261 L 83 264 Q 80 263 81 266 L 85 265 L 90 266 L 89 265 L 92 263 L 90 261 Z M 97 264 L 97 265 L 99 265 L 97 264 Z M 48 272 Q 47 275 50 274 Q 51 271 48 272 Z M 68 272 L 68 273 L 70 273 L 68 272 Z M 174 277 L 174 281 L 176 282 Q 178 276 174 277 Z M 49 278 L 50 280 Q 51 277 49 278 Z M 168 281 L 166 283 Q 167 285 165 284 L 162 288 Q 166 289 165 287 L 169 284 Q 170 280 168 281 Z M 156 286 Q 155 289 158 288 Q 159 285 156 286 Z M 170 286 Q 169 289 173 288 Q 174 285 170 286 Z M 323 288 L 322 320 L 324 320 L 324 290 L 323 288 Z M 34 294 L 32 297 L 35 298 L 35 294 L 34 294 Z M 133 294 L 132 296 Q 137 297 139 295 L 133 294 Z M 124 296 L 123 300 Q 127 301 128 299 Q 129 294 124 296 Z M 142 298 L 137 302 L 144 302 L 145 300 L 142 298 Z M 114 300 Q 113 303 118 302 Q 119 305 121 303 Q 123 304 122 302 Q 121 299 120 301 Q 118 299 114 300 Z M 100 302 L 100 305 L 107 304 L 107 302 L 100 302 Z M 43 305 Q 41 309 45 310 L 47 310 L 46 309 L 43 305 Z M 110 306 L 109 310 L 112 310 Q 114 305 110 306 Z M 48 312 Q 47 317 51 318 Q 53 317 52 320 L 56 320 Q 57 317 54 318 L 52 314 Q 49 315 50 312 L 48 312 Z M 226 321 L 226 336 L 228 336 L 228 322 L 226 321 Z M 65 326 L 64 329 L 67 330 L 68 328 L 65 326 Z M 68 330 L 70 334 Q 73 333 72 336 Q 76 337 77 335 L 68 330 Z M 138 336 L 138 338 L 141 337 L 138 336 Z M 156 336 L 156 338 L 160 339 Q 162 334 156 336 Z M 141 338 L 141 341 L 144 342 Q 146 336 141 338 Z M 80 339 L 80 344 L 82 344 Q 80 342 83 341 Q 84 338 80 339 Z M 150 342 L 150 344 L 154 346 Q 158 348 157 344 Q 155 341 150 342 Z M 84 346 Q 86 350 82 349 L 80 352 L 88 350 L 89 348 Q 88 345 84 346 Z M 326 352 L 326 384 L 328 384 L 328 353 L 326 352 Z M 165 355 L 165 357 L 168 357 L 165 355 Z M 101 361 Q 98 362 99 366 L 103 367 L 105 362 L 101 361 Z M 112 366 Q 111 369 114 368 Q 115 365 112 366 Z M 177 368 Q 176 371 180 370 Q 181 367 177 368 Z M 116 369 L 116 370 L 118 370 L 116 369 Z M 189 370 Q 187 376 192 374 L 193 371 L 189 370 Z M 121 373 L 120 376 L 123 377 L 125 376 L 121 373 Z M 114 374 Q 111 375 112 379 L 116 377 Q 117 373 114 374 Z M 128 378 L 128 382 Q 132 384 131 380 L 128 378 Z M 190 381 L 190 382 L 192 382 L 190 381 Z M 115 382 L 116 384 L 122 384 L 122 382 L 115 382 Z M 133 382 L 130 384 L 134 384 L 133 382 Z M 198 383 L 196 384 L 197 386 Q 200 387 201 385 L 198 383 Z M 366 384 L 364 386 L 364 400 L 366 400 L 366 384 Z M 328 386 L 326 388 L 326 396 L 328 395 L 328 386 Z M 204 388 L 204 390 L 208 392 L 206 388 L 204 388 Z M 323 389 L 323 397 L 324 395 L 323 389 Z M 148 394 L 146 396 Q 148 400 150 397 Q 151 393 148 394 Z M 219 402 Q 218 405 222 404 Q 223 401 219 402 Z M 324 403 Q 323 410 328 412 Q 334 414 333 410 Q 327 411 326 407 Q 327 402 324 403 Z M 223 404 L 222 406 L 224 407 L 223 404 Z M 165 408 L 160 410 Q 158 414 163 413 L 166 410 L 165 408 Z M 347 412 L 345 414 L 352 414 Q 353 410 347 412 Z M 320 413 Q 319 418 323 416 Q 325 412 320 413 Z M 168 414 L 165 416 L 168 416 L 168 414 Z M 337 414 Q 336 417 339 416 Q 340 413 337 414 Z M 176 427 L 176 430 Q 180 431 179 429 L 176 427 Z M 189 428 L 187 430 L 188 432 L 194 432 L 189 428 Z M 195 439 L 193 441 L 200 443 L 201 447 Q 205 448 203 443 L 198 439 L 195 439 Z M 210 452 Q 209 455 212 454 Q 213 451 210 452 Z M 212 454 L 215 460 L 218 459 L 212 454 Z M 226 460 L 226 463 L 226 464 Q 230 465 229 462 L 231 462 L 226 460 Z M 266 470 L 264 471 L 262 474 Q 267 475 269 473 Q 270 468 266 470 Z M 240 473 L 240 476 L 246 475 Q 245 472 240 473 Z M 271 477 L 268 478 Q 267 482 272 480 Q 273 476 271 477 Z "></path><path fill="rgb(0,0,0)" stroke="rgb(0,0,0)" stroke-width="1" opacity="1" d="M 234.5 280 L 235 318.5 L 234 318.5 L 234.5 280 Z "></path><path fill="rgb(59,23,129)" stroke="rgb(59,23,129)" stroke-width="1" opacity="1" d="M 248.5 37 L 259 40 Q 257.9 42.7 260.5 42 L 298 72 Q 296.9 74.7 299.5 74 L 320 90 Q 318.9 92.7 321.5 92 L 358.5 123 L 364 126 Q 362.9 128.7 365.5 128 L 402.5 159 L 408 162 Q 406.9 164.7 409.5 164 L 442 190 Q 440.9 192.7 443.5 192 L 453 200.5 L 454 212.5 L 449.5 218 Q 446.9 217.3 448 220 L 445.5 220 L 423.5 228 L 416.5 229 L 382.5 240 L 368.5 243 L 359 247.5 L 358.5 302 L 357.5 252 L 356 252.5 L 355 244.5 Q 357.3 243.3 354.5 242 L 352 240.5 L 355 240 L 355 242 Q 358.7 240.5 358 243.5 L 356 246.5 L 358 247.5 L 360 242 L 369.5 240 L 374 241 Q 372.9 238.3 375.5 239 L 377.5 238 L 380.5 239 L 387 236.5 L 382.5 236 L 378 237 L 376 233 L 379.5 235 L 385.5 235 Q 386.3 232.3 390.5 233 L 390.5 234 L 387 235.5 L 390.5 236 L 394 234.5 Q 391.8 233.3 394.5 232 L 394.5 234 L 400 232.5 Q 396.9 230.1 390.5 231 Q 386.9 233.9 379.5 233 L 378.5 232 L 353.5 232 L 351.5 230 Q 349.8 233.5 344 232 L 345 225 L 338 227.5 Q 337.3 229.8 339.5 229 L 342.5 227 L 343 228.5 L 337.5 231 Q 336.2 228.8 335 231.5 L 333 239.5 L 336 238.5 L 335 240.5 L 335 256 L 333 256.5 L 333 396.5 L 332 396.5 L 332 233.5 L 338.5 224 L 361.5 216 L 399.5 206 L 410 201.5 Q 410.5 197.5 407.5 197 L 392 186 Q 393.1 183.3 390.5 184 L 334 138 Q 335.1 135.3 332.5 136 L 306.5 114 L 302 112 Q 303.1 109.3 300.5 110 L 278 92 Q 279.1 89.3 276.5 90 L 268 84 Q 269.1 81.3 266.5 82 L 264 81 L 263 83.5 L 263 143.5 L 264 144.5 L 264 159.5 L 263 160.5 L 263 178.5 L 264 179.5 L 264 455.5 L 263 455.5 L 263 302.5 L 262 301.5 L 261.5 181 L 261 232 L 258 232.5 L 258 249.5 L 257 249.5 L 256.5 208 L 256 232 L 240 232 L 240 248 L 256 248.5 L 240.5 249 L 239 247.5 L 238.5 200 L 236.5 400 L 236 48.5 L 241.5 40 L 248.5 37 Z M 433 186 Q 431 189 434 188 L 433 186 Z M 413 193 Q 412 196 416 195 Q 417 192 413 193 Z M 440 195 L 440 197 L 442 196 L 440 195 Z M 411 197 Q 410 200 413 199 Q 414 196 411 197 Z M 412 203 L 409 205 L 413 205 Q 414 202 412 203 Z M 449 204 L 449 206 Q 450 209 448 208 L 447 210 L 449 209 L 450 215 L 451 213 L 450 210 L 450 208 Q 451 203 449 204 Z M 453 205 L 452 208 L 453 208 L 453 205 Z M 408 207 L 403 209 L 409 209 L 408 207 Z M 432 208 L 431 210 L 434 211 Q 435 209 437 212 L 440 211 L 434 208 L 432 208 Z M 392 209 L 390 211 L 393 212 Q 397 213 398 210 L 392 209 Z M 385 212 L 377 216 L 374 215 L 371 216 Q 368 215 369 218 L 366 218 L 367 220 L 372 220 L 383 215 L 386 216 L 390 216 L 386 215 L 392 213 L 385 212 Z M 398 213 L 396 216 L 387 219 Q 383 218 384 221 Q 383 223 382 221 Q 379 220 380 224 L 383 225 L 385 222 L 395 223 L 390 226 L 399 228 Q 402 227 401 222 L 398 221 Q 395 222 396 220 L 400 217 Q 402 218 401 215 L 398 213 Z M 444 214 L 444 216 L 444 217 Q 447 218 448 216 L 448 214 L 444 214 Z M 434 216 L 434 217 L 437 217 L 434 216 Z M 360 218 L 360 220 L 364 219 L 360 218 Z M 432 218 L 432 220 L 440 219 L 432 218 Z M 353 220 L 351 221 L 351 222 Q 355 223 357 221 L 353 220 Z M 359 221 L 357 223 L 364 223 L 365 221 L 361 222 L 359 221 Z M 347 222 L 347 223 L 350 223 L 347 222 Z M 433 222 L 433 223 L 435 223 L 433 222 Z M 420 223 L 420 224 L 423 224 L 420 223 Z M 351 224 Q 351 228 353 225 L 351 224 Z M 427 224 L 427 225 L 429 225 L 427 224 Z M 405 225 L 404 229 L 416 226 L 416 225 Q 411 224 410 226 L 405 225 Z M 418 225 L 419 227 L 422 226 L 418 225 Z M 384 227 L 383 230 L 390 229 L 389 227 L 385 228 L 387 228 L 387 229 L 384 227 Z M 398 230 L 398 231 L 403 231 L 398 230 Z "></path><path fill="rgb(59,23,129)" stroke="rgb(59,23,129)" stroke-width="1" opacity="1" d="M 150.5 96 L 155.5 96 L 163 100.5 L 167 109.5 L 167 271.5 L 160.5 280 L 135.5 288 L 135.5 287 L 146.5 283 L 153.5 282 L 164 274.5 Q 163 269.5 166 270.5 L 166 248.5 L 165 248.5 L 164.5 264 L 164 208.5 L 163 207.5 L 162.5 192 L 161.5 256 L 160 232 L 145 232 L 145 225.5 L 144 224.5 L 144 209.5 L 144 207.5 L 143.5 184 L 142.5 256 L 141.5 208 L 141 257.5 L 139.5 259 L 136.5 261 L 134.5 260 L 121.5 265 L 100.5 270 L 95.5 273 L 93 271.5 L 109.5 267 L 112.5 265 L 116.5 265 Q 123.5 261 133.5 260 L 140 256.5 L 140 106.5 L 144 99 L 150.5 96 Z M 142 184 L 141 207 L 142 207 L 142 184 Z "></path><path fill="rgb(59,23,129)" stroke="rgb(59,23,129)" stroke-width="1" opacity="1" d="M 340 234 L 342 234.5 L 341.5 237 L 339 236.5 L 340 234 Z "></path><path fill="rgb(59,23,129)" stroke="rgb(59,23,129)" stroke-width="1" opacity="1" d="M 145.5 248 L 160 248.5 L 145.5 249 L 145.5 248 Z "></path><path fill="rgb(59,23,129)" stroke="rgb(59,23,129)" stroke-width="1" opacity="1" d="M 337.5 248 L 352 248.5 L 337.5 249 L 337.5 248 Z "></path><path fill="rgb(59,23,129)" stroke="rgb(59,23,129)" stroke-width="1" opacity="1" d="M 89.5 272 L 92 272.5 L 87.5 275 L 80.5 276 L 80.5 275 L 89.5 272 Z "></path><path fill="rgb(59,23,129)" stroke="rgb(59,23,129)" stroke-width="1" opacity="1" d="M 76.5 276 L 79 276.5 L 72 278.5 L 72.5 280 L 70.5 280 L 66 279.5 L 76.5 276 Z "></path><path fill="rgb(59,23,129)" stroke="rgb(59,23,129)" stroke-width="1" opacity="1" d="M 62.5 280 L 65 280.5 L 52.5 285 L 48 288 Q 44.9 291.6 46 300.5 L 48 303.5 L 46 302.5 Q 43.7 299.3 45 292.5 L 50.5 285 L 62.5 280 Z "></path><path fill="rgb(59,23,129)" stroke="rgb(59,23,129)" stroke-width="1" opacity="1" d="M 131.5 288 L 134 288.5 L 131.5 289 L 131.5 288 Z "></path><path fill="rgb(59,23,129)" stroke="rgb(59,23,129)" stroke-width="1" opacity="1" d="M 128.5 289 L 130 289.5 L 121.5 292 L 121.5 291 L 128.5 289 Z "></path><path fill="rgb(59,23,129)" stroke="rgb(59,23,129)" stroke-width="1" opacity="1" d="M 116.5 292 L 120 292.5 L 103.5 298 L 96.5 299 L 89 302.5 L 94.5 309 L 127 335.5 L 124.5 334 L 96 311.5 Q 96.8 309.3 94.5 310 L 88 304.5 Q 86.5 300.1 89.5 301 L 116.5 292 Z "></path><path fill="rgb(59,23,129)" stroke="rgb(59,23,129)" stroke-width="1" opacity="1" d="M 48.5 305 L 61.5 316 L 66 318 L 67.5 321 L 77 327 Q 75.9 329.7 78.5 329 L 85 334 L 84.5 336 L 80 333 Q 81.1 330.3 78.5 331 L 51.5 309 L 48.5 305 Z "></path><path fill="rgb(59,23,129)" stroke="rgb(59,23,129)" stroke-width="1" opacity="1" d="M 86.5 336 L 95 342 L 96.5 345 L 104 350.5 L 102.5 351 L 90.5 341 L 86.5 336 Z "></path><path fill="rgb(59,23,129)" stroke="rgb(59,23,129)" stroke-width="1" opacity="1" d="M 128.5 337 L 146 351.5 L 141.5 348 L 131.5 341 L 128.5 337 Z "></path><path fill="rgb(59,23,129)" stroke="rgb(59,23,129)" stroke-width="1" opacity="1" d="M 105.5 352 L 119 363.5 L 114.5 360 Q 107.7 356.8 105.5 352 Z "></path><path fill="rgb(59,23,129)" stroke="rgb(59,23,129)" stroke-width="1" opacity="1" d="M 147.5 352 L 156 359.5 L 151.5 356 L 147.5 352 Z "></path><path fill="rgb(59,23,129)" stroke="rgb(59,23,129)" stroke-width="1" opacity="1" d="M 157.5 360 L 178 377.5 L 174.5 375 L 157 361.5 L 157.5 360 Z "></path><path fill="rgb(59,23,129)" stroke="rgb(59,23,129)" stroke-width="1" opacity="1" d="M 120.5 364 L 164 400.5 L 159.5 397 L 125.5 369 L 120 366 L 120.5 364 Z "></path><path fill="rgb(59,23,129)" stroke="rgb(59,23,129)" stroke-width="1" opacity="1" d="M 179.5 378 L 183.5 383 L 179.5 378 Z "></path><path fill="rgb(59,23,129)" stroke="rgb(59,23,129)" stroke-width="1" opacity="1" d="M 185.5 383 L 195 391.5 L 190.5 388 L 185.5 383 Z "></path><path fill="rgb(59,23,129)" stroke="rgb(59,23,129)" stroke-width="1" opacity="1" d="M 196.5 392 L 205 399.5 L 201.5 397 L 196.5 392 Z "></path><path fill="rgb(59,23,129)" stroke="rgb(59,23,129)" stroke-width="1" opacity="1" d="M 358.5 397 L 359 399.5 L 353.5 406 L 350.5 407 L 350.5 406 L 356 402.5 L 358.5 397 Z "></path><path fill="rgb(59,23,129)" stroke="rgb(59,23,129)" stroke-width="1" opacity="1" d="M 333.5 398 L 338.5 405 L 344 407.5 L 342.5 408 L 335 402.5 L 333.5 398 Z "></path><path fill="rgb(59,23,129)" stroke="rgb(59,23,129)" stroke-width="1" opacity="1" d="M 206.5 400 L 211.5 406 L 206 402 L 206.5 400 Z "></path><path fill="rgb(59,23,129)" stroke="rgb(59,23,129)" stroke-width="1" opacity="1" d="M 165.5 401 L 175 409.5 L 170.5 406 L 165.5 401 Z "></path><path fill="rgb(59,23,129)" stroke="rgb(59,23,129)" stroke-width="1" opacity="1" d="M 213.5 406 L 214.5 408 L 213.5 406 Z "></path><path fill="rgb(59,23,129)" stroke="rgb(59,23,129)" stroke-width="1" opacity="1" d="M 218.5 410 L 224 414.5 L 222.5 415 L 218.5 410 Z "></path><path fill="rgb(59,23,129)" stroke="rgb(59,23,129)" stroke-width="1" opacity="1" d="M 177.5 411 L 192 423.5 L 186.5 419 Q 180 416.1 177.5 411 Z "></path><path fill="rgb(59,23,129)" stroke="rgb(59,23,129)" stroke-width="1" opacity="1" d="M 225.5 416 L 235 423.5 L 233.5 423 Q 227.5 420.5 225.5 416 Z "></path><path fill="rgb(59,23,129)" stroke="rgb(59,23,129)" stroke-width="1" opacity="1" d="M 193.5 424 L 197.5 429 L 193.5 424 Z "></path><path fill="rgb(59,23,129)" stroke="rgb(59,23,129)" stroke-width="1" opacity="1" d="M 199.5 429 L 221 447.5 L 215.5 443 L 203.5 434 L 199.5 429 Z "></path><path fill="rgb(59,23,129)" stroke="rgb(59,23,129)" stroke-width="1" opacity="1" d="M 222.5 448 L 225.5 452 L 222.5 448 Z "></path><path fill="rgb(59,23,129)" stroke="rgb(59,23,129)" stroke-width="1" opacity="1" d="M 227.5 452 L 230.5 456 L 227.5 452 Z "></path><path fill="rgb(59,23,129)" stroke="rgb(59,23,129)" stroke-width="1" opacity="1" d="M 232.5 456 L 236.5 461 L 232.5 456 Z "></path><path fill="rgb(59,23,129)" stroke="rgb(59,23,129)" stroke-width="1" opacity="1" d="M 262.5 457 L 263 459.5 L 257.5 466 L 254.5 467 L 254.5 466 L 261 461.5 L 262.5 457 Z "></path><path fill="rgb(59,23,129)" stroke="rgb(59,23,129)" stroke-width="1" opacity="1" d="M 238.5 461 L 239.5 463 L 238.5 461 Z "></path><path fill="rgb(59,23,129)" stroke="rgb(59,23,129)" stroke-width="1" opacity="1" d="M 241.5 464 L 242.5 466 L 241.5 464 Z "></path><path fill="rgb(59,23,129)" stroke="rgb(59,23,129)" stroke-width="1" opacity="1" d="M 247.5 467 L 253 467.5 L 247.5 468 L 247.5 467 Z "></path><path fill="rgb(1,0,3)" stroke="rgb(1,0,3)" stroke-width="1" opacity="1" d="M 254.5 32 L 258 32.5 Q 256.8 35.3 255.5 33 L 254.5 32 Z "></path><path fill="rgb(1,0,3)" stroke="rgb(1,0,3)" stroke-width="1" opacity="1" d="M 266 32 L 268 32.5 L 266 33.5 L 266 32 Z "></path><path fill="rgb(1,0,3)" stroke="rgb(1,0,3)" stroke-width="1" opacity="1" d="M 228 33 Q 230.7 31.9 230 34.5 L 234 36 L 233.5 38 L 226.5 38 L 225 38.5 L 228 33 Z "></path><path fill="rgb(1,0,3)" stroke="rgb(1,0,3)" stroke-width="1" opacity="1" d="M 246.5 34 L 260 37 Q 258.8 34 262.5 35 L 261.5 37 L 260 37.5 L 262.5 41 L 269.5 45 L 269 43.5 Q 268.3 41.3 270.5 42 L 272 46 L 270 46.5 Q 272.3 50.5 277 51 L 278.5 54 L 283 56 L 284.5 59 L 289 61.5 Q 288.1 64.5 292.5 63 Q 295.8 64.2 295 68 L 311.5 81 L 314 81 L 314 77 L 315.5 77 L 317 79.5 L 315 82.5 L 319.5 87 L 326 90 L 328.5 94 Q 332.9 92.5 332 95.5 L 331.5 97 L 333.5 96 L 335.5 97 L 339 96 L 337.5 99 L 334.5 98 L 334 100 Q 336.7 98.9 336 101.5 Q 337 104 341.5 103 L 344 105.5 Q 341.8 106.8 344.5 108 L 351.5 113 L 353.5 112 L 353 113.5 L 353 116 L 357 116 L 357 117.5 L 362 121.5 Q 361.3 123.8 363.5 123 L 366 124 L 367.5 127 Q 370.1 126.3 369 129 L 371.5 129 Q 378.8 138.3 389 143 L 390.5 146 L 408.5 159 L 412 156.5 L 413 158.5 L 409 160.5 L 417 166.5 L 417 168 Q 420.7 166.5 420 169.5 L 425 173 Q 423.9 175.7 426.5 175 L 429 176 Q 427.9 178.7 430.5 178 L 444.5 188 Q 442.8 186 446.5 184 Q 449.5 183.1 448 187.5 L 445 188.5 Q 443.9 191.8 446.5 191 L 454 196.5 L 457 204.5 L 457 211.5 L 456 216 L 453 217.5 L 451 222 L 444 223 Q 445.3 226 441.5 225 L 440 228 L 438 228.5 L 440 229.5 L 438.5 230 L 435.5 229 L 433 230 L 431.5 233 L 428 231.5 L 433 229.5 Q 432.3 227.3 428.5 228 L 405.5 235 L 403.5 237 L 401.5 236 L 391.5 239 L 389.5 241 L 383.5 241 L 383.5 240 L 406.5 234 L 416.5 230 L 427.5 228 L 436.5 224 L 441.5 224 L 449.5 220 L 453 216.5 L 456 208.5 L 454 200.5 L 449.5 195 L 446.5 193 L 403.5 157 L 400 156 L 398.5 153 L 380.5 138 L 376 136 Q 377.1 133.3 374.5 134 L 364.5 125 L 360 123 Q 361.1 120.3 358.5 121 L 291.5 65 L 288 64 L 286.5 61 L 282 59 Q 283.1 56.3 280.5 57 L 258.5 38 L 247.5 36 Q 240.9 36.9 238 41.5 L 235 49.5 L 235 63.5 L 234 64.5 L 234 199.5 Q 236.7 201.3 235 207.5 L 234 207.5 Q 235.8 201.3 233 199.5 L 233 48.5 L 235 48.5 L 236 41.5 L 235.5 40 L 243 37 Q 241.8 34 245.5 35 L 246.5 34 Z "></path><path fill="rgb(1,0,3)" stroke="rgb(1,0,3)" stroke-width="1" opacity="1" d="M 270 35 Q 272.7 33.9 272 36.5 L 270 37.5 L 270 35 Z "></path><path fill="rgb(1,0,3)" stroke="rgb(1,0,3)" stroke-width="1" opacity="1" d="M 229.5 45 L 232 46.5 L 232 48 L 230 48.5 L 230 318.5 L 228 319.5 L 228 46.5 L 229.5 45 Z "></path><path fill="rgb(1,0,3)" stroke="rgb(1,0,3)" stroke-width="1" opacity="1" d="M 286 48 Q 289 47 288 50 Q 285 51 286 48 Z "></path><path fill="rgb(1,0,3)" stroke="rgb(1,0,3)" stroke-width="1" opacity="1" d="M 282 51 Q 284.7 49.9 284 52.5 L 288 55 Q 289.1 57.7 286.5 57 L 285 54 L 282 52.5 L 282 51 Z "></path><path fill="rgb(1,0,3)" stroke="rgb(1,0,3)" stroke-width="1" opacity="1" d="M 312 64 L 318.5 64 L 319 66 L 312.5 66 L 312 64 Z "></path><path fill="rgb(1,0,3)" stroke="rgb(1,0,3)" stroke-width="1" opacity="1" d="M 224.5 65 L 225 94.5 L 224 94.5 L 224.5 65 Z "></path><path fill="rgb(1,0,3)" stroke="rgb(1,0,3)" stroke-width="1" opacity="1" d="M 299 66 L 305 67 L 303.5 71 L 299 67.5 L 299 66 Z "></path><path fill="rgb(1,0,3)" stroke="rgb(1,0,3)" stroke-width="1" opacity="1" d="M 306 69 L 314 72 Q 315.1 74.7 312.5 74 Q 311 76.5 309.5 73 L 306 70.5 L 306 69 Z "></path><path fill="rgb(1,0,3)" stroke="rgb(1,0,3)" stroke-width="1" opacity="1" d="M 318 69 Q 321.3 67.9 320 72 Q 316.7 73.1 318 69 Z "></path><path fill="rgb(1,0,3)" stroke="rgb(1,0,3)" stroke-width="1" opacity="1" d="M 323.5 80 L 325.5 81 L 327 80.5 Q 327.9 83.9 322.5 82 L 323.5 80 Z "></path><path fill="rgb(1,0,3)" stroke="rgb(1,0,3)" stroke-width="1" opacity="1" d="M 265.5 83 L 296 107 Q 294.9 109.7 297.5 109 L 312 120 Q 310.9 122.7 313.5 122 L 323.5 131 L 328 133 L 329.5 136 L 390 184.5 Q 389.3 186.8 391.5 186 L 400 192 Q 398.9 194.7 401.5 194 L 408 199 Q 409.3 203.1 406 202 Q 407.7 197.9 403.5 199 L 400.5 195 L 397 196 Q 395.9 193.3 398.5 194 L 397.5 192 L 394 190.5 Q 394.8 188.3 392.5 189 L 386.5 183 L 375.5 176 L 371 177 L 371 174 Q 374 175 373 172 L 366.5 168 L 364 168 L 364 166 Q 361.3 167.1 362 164.5 Q 360.8 161.3 357 162 L 355.5 158 L 350.5 154 L 345.5 153 L 344 153.5 L 345.5 151 L 344 151 Q 345.5 147.3 342.5 148 L 334.5 141 L 331 140 L 328.5 136 L 324.5 138 L 324 136.5 L 326 133 L 321 132 L 321 129 Q 318 130 319 127 L 314.5 127 L 315 125.5 L 308.5 119 L 303 116 Q 304.1 113.3 301.5 114 L 299 113 L 297.5 110 L 278 95.5 Q 278.8 93.3 276.5 94 L 270.5 88 L 269 88.5 L 268 85 Q 263.5 86.3 265.5 83 Z "></path><path fill="rgb(1,0,3)" stroke="rgb(1,0,3)" stroke-width="1" opacity="1" d="M 264.5 86 L 266 89.5 L 266 382.5 L 265 383.5 L 265 431.5 L 266 432.5 L 266 447.5 Q 263.8 448.7 265 453.5 Q 267.2 454.7 266 459.5 L 264 465 L 256.5 470 L 245 471 Q 246.1 468.3 243.5 469 L 241.5 468 L 240 468.5 L 239 465 Q 235.2 466.5 236 463.5 L 230 458.5 L 231.5 458 L 240 464 L 241.5 467 Q 245.5 470 253.5 469 Q 259.3 467.8 262 463.5 L 264 459.5 L 265 433.5 L 264 432.5 L 264 320.5 L 265 319.5 L 265 256.5 L 264 255.5 L 264 209.5 L 265 208.5 L 265 94.5 L 264 90.5 L 264 88.5 L 264.5 86 Z "></path><path fill="rgb(1,0,3)" stroke="rgb(1,0,3)" stroke-width="1" opacity="1" d="M 331.5 86 Q 338.3 84 336 90 L 331 90 L 331 88.5 Q 328.8 87.3 331.5 86 Z "></path><path fill="rgb(1,0,3)" stroke="rgb(1,0,3)" stroke-width="1" opacity="1" d="M 268 90 Q 271.7 88.7 270 94.5 L 268 93.5 L 268 90 Z "></path><path fill="rgb(1,0,3)" stroke="rgb(1,0,3)" stroke-width="1" opacity="1" d="M 272 94 Q 275 93 274 96 Q 271 97 272 94 Z "></path><path fill="rgb(1,0,3)" stroke="rgb(1,0,3)" stroke-width="1" opacity="1" d="M 144.5 95 L 160.5 95 L 166 99.5 L 171 111.5 L 171 126.5 L 170 126.5 L 169.5 113 L 169 240.5 L 170 241.5 L 170 254.5 L 169 255.5 Q 170.4 269.1 168 277 L 160.5 283 L 151.5 287 L 146.5 287 Q 146 290.5 141.5 290 L 137.5 289 L 136 292 L 128.5 292 L 121.5 296 L 114.5 296 L 105.5 300 L 97 301.5 L 97.5 303 L 94.5 302 L 93 304.5 L 96 306 L 97.5 309 Q 99.8 309.8 99 307.5 Q 100.2 305 104 306 L 102.5 310 L 101 310.5 L 103 311 Q 101.8 314 105.5 313 L 105 311.5 Q 104.1 308.5 108.5 310 L 110 306 Q 113.7 304.8 112 310 L 109 310 Q 110.5 313.7 107.5 313 Q 104.5 314.5 107.5 316 L 112 314 Q 112.8 317.4 110 318.5 L 113 320 Q 111.8 323 115.5 322 Q 118.5 328 125 329 Q 123.5 324.5 128 326 Q 129.5 329.8 126.5 329 Q 123 331 127.5 333 Q 130.1 332.3 129 335 L 132 335 L 132 336.5 L 141 343 L 142 345.5 L 137.5 342 Q 134 337 128 336 L 126.5 333 L 91 303.5 L 97.5 300 L 131.5 291 L 144.5 286 L 152.5 285 Q 160.3 282.8 165 277.5 L 168 271.5 L 168 106.5 L 162.5 98 L 159.5 96 L 147.5 96 L 141 100.5 L 139 105.5 L 139 255.5 L 137.5 257 L 134.5 258 L 134.5 257 L 138 254.5 L 138 208.5 L 137 207.5 L 137 192.5 L 138 191.5 L 138 109.5 L 137 104.5 L 139 101.5 L 136 103.5 L 136 107.5 L 133.5 112 Q 130.8 110.8 133 109.5 L 134 106.5 L 133 104.5 L 134 102 L 136 102 L 136 100 L 138 100 Q 136.9 97.3 139.5 98 L 140.5 99 L 144.5 95 Z "></path><path fill="rgb(1,0,3)" stroke="rgb(1,0,3)" stroke-width="1" opacity="1" d="M 130 96 Q 134.1 94.3 133 98.5 L 131.5 101 L 130 96 Z "></path><path fill="rgb(1,0,3)" stroke="rgb(1,0,3)" stroke-width="1" opacity="1" d="M 174 96 Q 177.3 94.9 176 99 Q 172.7 100.1 174 96 Z "></path><path fill="rgb(1,0,3)" stroke="rgb(1,0,3)" stroke-width="1" opacity="1" d="M 345.5 96 Q 349.3 95 348 98 L 352 98 L 352 102 L 348 100.5 Q 349.1 97.2 346.5 98 L 345.5 96 Z "></path><path fill="rgb(1,0,3)" stroke="rgb(1,0,3)" stroke-width="1" opacity="1" d="M 275.5 97 Q 278.8 95.9 278 98.5 L 276 99.5 L 275.5 97 Z "></path><path fill="rgb(1,0,3)" stroke="rgb(1,0,3)" stroke-width="1" opacity="1" d="M 171 100 Q 174.3 98.7 173 103.5 L 171 102.5 L 171 100 Z "></path><path fill="rgb(1,0,3)" stroke="rgb(1,0,3)" stroke-width="1" opacity="1" d="M 285.5 103 L 285 104.5 Q 285.7 107.5 282 106 Q 280.8 103 284.5 104 L 285.5 103 Z "></path><path fill="rgb(1,0,3)" stroke="rgb(1,0,3)" stroke-width="1" opacity="1" d="M 273.5 105 L 275 108 Q 271.2 109.5 272 106.5 L 273.5 105 Z "></path><path fill="rgb(1,0,3)" stroke="rgb(1,0,3)" stroke-width="1" opacity="1" d="M 288 106 Q 291.3 104.7 290 109.5 L 288 108.5 L 288 106 Z "></path><path fill="rgb(1,0,3)" stroke="rgb(1,0,3)" stroke-width="1" opacity="1" d="M 348.5 107 L 351 108.5 L 349.5 109 L 348.5 107 Z "></path><path fill="rgb(1,0,3)" stroke="rgb(1,0,3)" stroke-width="1" opacity="1" d="M 283.5 110 Q 288.3 108.7 287 112 L 279 111.5 L 283.5 110 Z "></path><path fill="rgb(1,0,3)" stroke="rgb(1,0,3)" stroke-width="1" opacity="1" d="M 291 110 Q 296.2 108.3 295 112 Q 289.8 113.7 291 110 Z "></path><path fill="rgb(1,0,3)" stroke="rgb(1,0,3)" stroke-width="1" opacity="1" d="M 269.5 112 L 270 143.5 L 269 143.5 L 269.5 112 Z "></path><path fill="rgb(1,0,3)" stroke="rgb(1,0,3)" stroke-width="1" opacity="1" d="M 365.5 112 Q 369.3 111 368 114 L 365.5 112 Z "></path><path fill="rgb(1,0,3)" stroke="rgb(1,0,3)" stroke-width="1" opacity="1" d="M 174 113 L 176 113.5 L 176 128.5 L 175 129.5 L 174.5 143 L 174 113 Z "></path><path fill="rgb(1,0,3)" stroke="rgb(1,0,3)" stroke-width="1" opacity="1" d="M 304.5 121 L 310 125.5 L 308.5 128 Q 303.1 129.9 304 126.5 L 305 123.5 L 304.5 121 Z "></path><path fill="rgb(1,0,3)" stroke="rgb(1,0,3)" stroke-width="1" opacity="1" d="M 379.5 130 L 384 133.5 L 383.5 135 L 382 132 L 379.5 130 Z "></path><path fill="rgb(1,0,3)" stroke="rgb(1,0,3)" stroke-width="1" opacity="1" d="M 323.5 143 L 327 143.5 L 323.5 144 L 323.5 143 Z "></path><path fill="rgb(1,0,3)" stroke="rgb(1,0,3)" stroke-width="1" opacity="1" d="M 393 144 L 397 144 Q 395.9 147.3 400 146 L 400 150 Q 397.3 151.1 398 148.5 Q 396.8 145.3 393 146 L 393 144 Z "></path><path fill="rgb(1,0,3)" stroke="rgb(1,0,3)" stroke-width="1" opacity="1" d="M 401 144 L 409 144.5 L 401 146 L 401 144 Z "></path><path fill="rgb(1,0,3)" stroke="rgb(1,0,3)" stroke-width="1" opacity="1" d="M 337.5 146 L 339 148.5 L 337.5 148 L 336 147.5 L 337.5 146 Z "></path><path fill="rgb(1,0,3)" stroke="rgb(1,0,3)" stroke-width="1" opacity="1" d="M 413 148 Q 417.5 146.5 416 151 L 413 149.5 L 413 148 Z "></path><path fill="rgb(1,0,3)" stroke="rgb(1,0,3)" stroke-width="1" opacity="1" d="M 403 150 L 407 151.5 L 408 154.5 L 407 154.5 Q 407.8 151.9 404.5 153 L 403 150 Z "></path><path fill="rgb(1,0,3)" stroke="rgb(1,0,3)" stroke-width="1" opacity="1" d="M 336 154 L 340 155.5 L 340 158 Q 343 157 342 160 Q 339 161 340 158 L 336 158 L 336 154 Z "></path><path fill="rgb(1,0,3)" stroke="rgb(1,0,3)" stroke-width="1" opacity="1" d="M 349.5 157 Q 353.7 155.9 352 160 L 348 160 L 348 158.5 L 349.5 157 Z "></path><path fill="rgb(1,0,3)" stroke="rgb(1,0,3)" stroke-width="1" opacity="1" d="M 415.5 160 L 429 168.5 L 430.5 171 Q 433.5 170.2 432 174 L 415 161.5 L 415.5 160 Z "></path><path fill="rgb(1,0,3)" stroke="rgb(1,0,3)" stroke-width="1" opacity="1" d="M 175.5 161 L 176 174.5 L 175 174.5 L 175.5 161 Z "></path><path fill="rgb(1,0,3)" stroke="rgb(1,0,3)" stroke-width="1" opacity="1" d="M 430 162 Q 433.3 160.9 432 165 Q 428.7 166.1 430 162 Z "></path><path fill="rgb(1,0,3)" stroke="rgb(1,0,3)" stroke-width="1" opacity="1" d="M 352 166 Q 357.9 165.1 360 169.5 L 352 170 L 352 166 Z "></path><path fill="rgb(1,0,3)" stroke="rgb(1,0,3)" stroke-width="1" opacity="1" d="M 361 172 L 366 174 L 366 176 L 360 176 L 361 172 Z "></path><path fill="rgb(1,0,3)" stroke="rgb(1,0,3)" stroke-width="1" opacity="1" d="M 134.5 175 L 136 177.5 L 136 207.5 L 135 208.5 L 134.5 255 L 134.5 175 Z "></path><path fill="rgb(1,0,3)" stroke="rgb(1,0,3)" stroke-width="1" opacity="1" d="M 269.5 176 L 270 207.5 L 269 207.5 L 269.5 176 Z "></path><path fill="rgb(1,0,3)" stroke="rgb(1,0,3)" stroke-width="1" opacity="1" d="M 439 178 Q 442.8 177 444 179.5 Q 445.1 182.8 442.5 182 L 439 180 L 439 178 Z "></path><path fill="rgb(1,0,3)" stroke="rgb(1,0,3)" stroke-width="1" opacity="1" d="M 371 182 Q 376 181.2 378 184.5 Q 378.6 187.3 372.5 186 L 371 182 Z "></path><path fill="rgb(1,0,3)" stroke="rgb(1,0,3)" stroke-width="1" opacity="1" d="M 384 187 L 390 189.5 Q 390.8 192.1 387.5 191 L 384 188.5 L 384 187 Z "></path><path fill="rgb(1,0,3)" stroke="rgb(1,0,3)" stroke-width="1" opacity="1" d="M 368 189 L 372 190 Q 373.2 193.7 368 192 L 368 189 Z "></path><path fill="rgb(1,0,3)" stroke="rgb(1,0,3)" stroke-width="1" opacity="1" d="M 384.5 191 L 387 192.5 L 385 193.5 L 384.5 191 Z "></path><path fill="rgb(1,0,3)" stroke="rgb(1,0,3)" stroke-width="1" opacity="1" d="M 455 192 Q 459.1 190.7 458 194 L 455.5 195 L 455 192 Z "></path><path fill="rgb(1,0,3)" stroke="rgb(1,0,3)" stroke-width="1" opacity="1" d="M 224.5 193 L 225 222.5 L 224 222.5 L 224.5 193 Z "></path><path fill="rgb(1,0,3)" stroke="rgb(1,0,3)" stroke-width="1" opacity="1" d="M 389.5 199 L 391.5 200 L 393.5 200 L 398.5 200 L 405 202.5 L 347.5 219 L 337.5 223 L 334.5 226 L 334 224.5 L 340.5 220 L 365 213 Q 363.8 210 367.5 211 L 369.5 212 L 372.5 210 L 387.5 207 L 392.5 204 L 394.5 205 L 399 204 Q 400.3 200.7 395.5 202 L 390.5 201 L 389.5 199 Z "></path><path fill="rgb(1,0,3)" stroke="rgb(1,0,3)" stroke-width="1" opacity="1" d="M 460.5 201 L 463 208.5 L 461.5 209 Q 458.1 207.1 460.5 201 Z "></path><path fill="rgb(1,0,3)" stroke="rgb(1,0,3)" stroke-width="1" opacity="1" d="M 384 203 Q 387 202 386 205 Q 383 206 384 203 Z "></path><path fill="rgb(1,0,3)" stroke="rgb(1,0,3)" stroke-width="1" opacity="1" d="M 342 208 L 347 208.5 Q 345.8 211 342 210 L 341.5 214 L 339.5 214 L 336 213 L 336 210 L 342 210 L 342 208 Z "></path><path fill="rgb(1,0,3)" stroke="rgb(1,0,3)" stroke-width="1" opacity="1" d="M 368 208 Q 372.1 206.7 371 210 Q 366.9 211.3 368 208 Z "></path><path fill="rgb(1,0,3)" stroke="rgb(1,0,3)" stroke-width="1" opacity="1" d="M 235.5 209 L 236 272.5 L 234 280.5 L 234 318.5 L 235 319.5 L 235 421 L 232.5 421 L 157.5 358 L 155 358 L 153.5 355 L 149 353 Q 150.1 350.3 147.5 351 L 143.5 346 L 145.5 346 L 152.5 352 L 157 351 L 155 355.5 L 169.5 366 L 171.5 366 L 173 365.5 L 172 370 L 177.5 374 L 180 374 Q 178.9 371.3 181.5 372 L 187 375.5 L 183 376 Q 181.2 380.9 187.5 379 L 192 381.5 L 189.5 382 L 188 381.5 L 190.5 385 L 206 396 L 207.5 399 Q 210.1 398.3 209 401 L 211.5 401 L 214.5 405 L 225 412 L 226 409.5 L 226 352 L 228 352.5 L 228 411.5 L 228 413.5 Q 227.2 416.1 230.5 415 L 230 416.5 Q 229.3 418.8 231.5 418 L 234 419 L 234 320.5 L 233 319.5 L 233 280.5 L 232 279.5 L 232 256 L 235 255.5 L 235.5 209 Z "></path><path fill="rgb(1,0,3)" stroke="rgb(1,0,3)" stroke-width="1" opacity="1" d="M 352.5 212 Q 355.1 211.3 354 214 L 343.5 215 L 343.5 214 Q 349.6 214.6 352.5 212 Z "></path><path fill="rgb(1,0,3)" stroke="rgb(1,0,3)" stroke-width="1" opacity="1" d="M 459.5 214 Q 461.8 213.3 461 215.5 L 462 218.5 L 458 221.5 L 458 224 L 452.5 224 L 452.5 223 L 458 221 Q 456.5 215.6 459.5 214 Z "></path><path fill="rgb(1,0,3)" stroke="rgb(1,0,3)" stroke-width="1" opacity="1" d="M 336 216 L 339 216.5 L 336 218.5 L 336 216 Z "></path><path fill="rgb(1,0,3)" stroke="rgb(1,0,3)" stroke-width="1" opacity="1" d="M 324 224 L 326 224.5 L 326 231.5 L 323 233.5 L 324 230.5 L 324 228.5 L 324 224 Z "></path><path fill="rgb(1,0,3)" stroke="rgb(1,0,3)" stroke-width="1" opacity="1" d="M 329.5 224 L 332 224 Q 330.5 227.8 333.5 227 L 332 229.5 L 331 234.5 L 330.5 393 L 329 256.5 L 330 255.5 L 330 236.5 L 329 234.5 L 329 232.5 L 328 225.5 L 329.5 224 Z "></path><path fill="rgb(1,0,3)" stroke="rgb(1,0,3)" stroke-width="1" opacity="1" d="M 269.5 225 L 270 238.5 L 269 238.5 L 269.5 225 Z "></path><path fill="rgb(1,0,3)" stroke="rgb(1,0,3)" stroke-width="1" opacity="1" d="M 414.5 235 Q 417.5 236.5 414.5 238 Q 412.3 238.8 413 236.5 L 414.5 235 Z "></path><path fill="rgb(1,0,3)" stroke="rgb(1,0,3)" stroke-width="1" opacity="1" d="M 421.5 235 L 424 235.5 L 421.5 236 L 421.5 235 Z "></path><path fill="rgb(1,0,3)" stroke="rgb(1,0,3)" stroke-width="1" opacity="1" d="M 322.5 236 L 324 240.5 L 324 256 L 322 255.5 L 322 240.5 Q 319 241.3 320 237 L 322.5 236 Z "></path><path fill="rgb(1,0,3)" stroke="rgb(1,0,3)" stroke-width="1" opacity="1" d="M 428 238 L 432 239.5 L 428 240 L 428 238 Z "></path><path fill="rgb(1,0,3)" stroke="rgb(1,0,3)" stroke-width="1" opacity="1" d="M 269.5 240 L 270 452.5 L 268 451.5 L 269 416.5 L 268 415.5 L 268 335.5 L 269 334.5 L 269 321.5 L 268 320.5 L 268 287.5 L 269 286.5 L 269 272.5 L 268 271.5 L 268 241.5 L 269.5 240 Z "></path><path fill="rgb(1,0,3)" stroke="rgb(1,0,3)" stroke-width="1" opacity="1" d="M 379.5 241 L 382 241.5 L 380 242.5 L 380.5 244 Q 377 246.5 369.5 245 L 361 249.5 L 362 252.5 L 362 400.5 L 359.5 406 Q 358.3 403.8 357 406.5 Q 357.8 408.8 355.5 408 L 343.5 411 Q 334.8 408.2 330 401.5 L 331.5 398 Q 332.6 404.4 337.5 407 L 342.5 409 L 347.5 409 L 354.5 407 L 358 403.5 L 360 399.5 L 360 271.5 L 361 270.5 L 361 255.5 Q 358.7 254.2 360 249.5 L 361 247 L 369.5 244 L 376.5 243 L 379.5 241 Z "></path><path fill="rgb(1,0,3)" stroke="rgb(1,0,3)" stroke-width="1" opacity="1" d="M 379.5 246 Q 385.4 244.3 384 248 L 379.5 247 L 379.5 246 Z "></path><path fill="rgb(1,0,3)" stroke="rgb(1,0,3)" stroke-width="1" opacity="1" d="M 371.5 247 L 374 247.5 L 371.5 248 L 371.5 247 Z "></path><path fill="rgb(1,0,3)" stroke="rgb(1,0,3)" stroke-width="1" opacity="1" d="M 366.5 250 Q 368.1 253.9 374 253.5 L 373 256 L 365 254 L 366.5 250 Z "></path><path fill="rgb(1,0,3)" stroke="rgb(1,0,3)" stroke-width="1" opacity="1" d="M 378.5 252 L 381 252.5 L 377.5 254 L 378.5 252 Z "></path><path fill="rgb(1,0,3)" stroke="rgb(1,0,3)" stroke-width="1" opacity="1" d="M 80 256 Q 84.1 254.7 83 258 Q 78.9 259.3 80 256 Z "></path><path fill="rgb(1,0,3)" stroke="rgb(1,0,3)" stroke-width="1" opacity="1" d="M 120.5 256 Q 123.8 254.9 123 257.5 L 121.5 257 L 120.5 256 Z "></path><path fill="rgb(1,0,3)" stroke="rgb(1,0,3)" stroke-width="1" opacity="1" d="M 96 257 L 99.5 258 L 101.5 258 Q 106.6 257.4 108 260.5 L 104.5 262 L 96 259 L 96 257 Z "></path><path fill="rgb(1,0,3)" stroke="rgb(1,0,3)" stroke-width="1" opacity="1" d="M 128 257 L 133 258.5 L 119.5 262 L 119.5 261 L 128 259 L 128 257 Z "></path><path fill="rgb(1,0,3)" stroke="rgb(1,0,3)" stroke-width="1" opacity="1" d="M 326 257 L 328 257.5 L 328 287 L 326 286.5 L 326 257 Z "></path><path fill="rgb(1,0,3)" stroke="rgb(1,0,3)" stroke-width="1" opacity="1" d="M 89.5 261 L 92 262.5 L 89 264.5 L 89.5 266 L 84.5 265 L 81 266 Q 79.9 263.3 82.5 264 L 89.5 261 Z "></path><path fill="rgb(1,0,3)" stroke="rgb(1,0,3)" stroke-width="1" opacity="1" d="M 115.5 262 L 118 262.5 L 99.5 269 L 92.5 270 L 89.5 272 L 55.5 281 L 48 285.5 L 44.5 290 L 44 287 L 47 287 Q 45.5 283.3 48.5 284 L 51 283 L 52.5 280 L 63.5 278 L 66.5 275 L 72 275 L 73.5 272 Q 75.8 271.3 75 273.5 L 76.5 273 L 82 272.5 L 80.5 270 L 88.5 271 L 91.5 268 L 97.5 267 L 99.5 267 L 115.5 262 Z "></path><path fill="rgb(1,0,3)" stroke="rgb(1,0,3)" stroke-width="1" opacity="1" d="M 96.5 264 L 99 264.5 L 96.5 265 L 96.5 264 Z "></path><path fill="rgb(1,0,3)" stroke="rgb(1,0,3)" stroke-width="1" opacity="1" d="M 48 272 Q 51 271 50 274 Q 47 275 48 272 Z "></path><path fill="rgb(1,0,3)" stroke="rgb(1,0,3)" stroke-width="1" opacity="1" d="M 67.5 272 L 70 272.5 L 67.5 273 L 67.5 272 Z "></path><path fill="rgb(1,0,3)" stroke="rgb(1,0,3)" stroke-width="1" opacity="1" d="M 50.5 277 L 50 278.5 L 49.5 280 L 48.5 278 L 50.5 277 Z "></path><path fill="rgb(1,0,3)" stroke="rgb(1,0,3)" stroke-width="1" opacity="1" d="M 174 277 Q 177.7 275.6 176 281.5 L 174 280.5 L 174 277 Z "></path><path fill="rgb(1,0,3)" stroke="rgb(1,0,3)" stroke-width="1" opacity="1" d="M 167.5 281 Q 170.5 280.2 169 284 L 165 286.5 Q 165.7 289.5 162 288 L 164.5 284 Q 166.8 284.8 166 282.5 L 167.5 281 Z "></path><path fill="rgb(1,0,3)" stroke="rgb(1,0,3)" stroke-width="1" opacity="1" d="M 156 286 Q 159 285 158 288 Q 155 289 156 286 Z "></path><path fill="rgb(1,0,3)" stroke="rgb(1,0,3)" stroke-width="1" opacity="1" d="M 170 286 Q 174.1 284.7 173 288 Q 168.9 289.3 170 286 Z "></path><path fill="rgb(1,0,3)" stroke="rgb(1,0,3)" stroke-width="1" opacity="1" d="M 322.5 288 L 324 289.5 L 324 320 L 322 319.5 L 322.5 288 Z "></path><path fill="rgb(1,0,3)" stroke="rgb(1,0,3)" stroke-width="1" opacity="1" d="M 43.5 291 L 44 295.5 L 44 297.5 L 43.5 301 L 42 300.5 L 41.5 302 Q 38.5 298.9 40 292 L 43.5 291 Z "></path><path fill="rgb(1,0,3)" stroke="rgb(1,0,3)" stroke-width="1" opacity="1" d="M 33.5 294 L 35 294 L 35 298 L 32 296.5 L 33.5 294 Z "></path><path fill="rgb(1,0,3)" stroke="rgb(1,0,3)" stroke-width="1" opacity="1" d="M 132.5 294 L 139 294.5 Q 137.5 297.5 131.5 296 L 132.5 294 Z "></path><path fill="rgb(1,0,3)" stroke="rgb(1,0,3)" stroke-width="1" opacity="1" d="M 124 296 Q 129.2 293.9 128 298.5 Q 126.8 301 123 300 L 124 296 Z "></path><path fill="rgb(1,0,3)" stroke="rgb(1,0,3)" stroke-width="1" opacity="1" d="M 141.5 298 L 145 299.5 L 144 302 L 137 301.5 L 141.5 298 Z "></path><path fill="rgb(1,0,3)" stroke="rgb(1,0,3)" stroke-width="1" opacity="1" d="M 113.5 300 Q 118.2 298.7 119.5 301 Q 120.8 298.7 122 301.5 Q 122.8 303.8 120.5 303 Q 119 305.5 117.5 302 Q 112.9 302.8 113.5 300 Z "></path><path fill="rgb(1,0,3)" stroke="rgb(1,0,3)" stroke-width="1" opacity="1" d="M 44.5 302 L 47 305.5 L 45.5 305 Q 42.4 305.7 44.5 302 Z "></path><path fill="rgb(1,0,3)" stroke="rgb(1,0,3)" stroke-width="1" opacity="1" d="M 100 302 L 106.5 302 L 107 304 L 100 305 L 100 302 Z "></path><path fill="rgb(1,0,3)" stroke="rgb(1,0,3)" stroke-width="1" opacity="1" d="M 42.5 305 L 45.5 309 Q 47.8 309.8 47 307.5 L 48.5 308 L 124 369.5 Q 123.3 371.8 125.5 371 L 140.5 384 L 144 385 Q 142.9 387.7 145.5 387 L 150 390 Q 148.9 392.7 151.5 392 L 160 399.5 L 157.5 400 L 152 399.5 L 155 397.5 L 152.5 394 L 139 385 L 136.5 381 L 134.5 380 L 133 380.5 Q 135.7 378.8 131.5 377 L 128.5 375 L 123 371.5 L 121.5 369 L 115 365 L 113.5 362 Q 106.5 360.5 103 355.5 L 101.5 353 L 96 354 Q 97.4 350 90.5 352 L 90.5 351 L 96 350 L 94.5 347 L 89 344.5 Q 91.7 342.8 87.5 341 L 83.5 339 L 81 342.5 L 81.5 344 L 80 344 L 80 339 Q 84.1 340.3 83 337 L 79 336 L 79 333 L 76 333 Q 77.1 330.3 74.5 331 L 61.5 320 L 57 320 L 56 316.5 L 56.5 315 L 47.5 309 L 44.5 310 Q 40.8 308.8 42.5 305 Z "></path><path fill="rgb(1,0,3)" stroke="rgb(1,0,3)" stroke-width="1" opacity="1" d="M 48 312 L 50 312 Q 48.9 314.7 51.5 314 L 54 318 Q 57 317 56 320 L 52 320 Q 53.1 317.3 50.5 318 Q 47 316.7 48 312 Z "></path><path fill="rgb(1,0,3)" stroke="rgb(1,0,3)" stroke-width="1" opacity="1" d="M 226 321 L 228 321.5 L 228 336 L 226 335.5 L 226 321 Z "></path><path fill="rgb(1,0,3)" stroke="rgb(1,0,3)" stroke-width="1" opacity="1" d="M 64.5 326 L 68 327.5 L 67 330 L 69.5 330 L 78 335.5 L 75.5 336 L 72 336 Q 73.3 333 69.5 334 L 66.5 330 L 64 328.5 L 64.5 326 Z "></path><path fill="rgb(1,0,3)" stroke="rgb(1,0,3)" stroke-width="1" opacity="1" d="M 138 336 L 141 336.5 L 138 338 L 138 336 Z "></path><path fill="rgb(1,0,3)" stroke="rgb(1,0,3)" stroke-width="1" opacity="1" d="M 156 336 Q 161.6 334.1 160 339 L 156 338 L 156 336 Z "></path><path fill="rgb(1,0,3)" stroke="rgb(1,0,3)" stroke-width="1" opacity="1" d="M 141 338 Q 145.9 336.4 144 342 L 141 340.5 L 141 338 Z "></path><path fill="rgb(1,0,3)" stroke="rgb(1,0,3)" stroke-width="1" opacity="1" d="M 150 342 Q 155.4 340.5 157 343.5 Q 158.3 347.7 153.5 346 L 150 343.5 L 150 342 Z "></path><path fill="rgb(1,0,3)" stroke="rgb(1,0,3)" stroke-width="1" opacity="1" d="M 84 346 Q 87.8 345 89 347.5 L 87.5 350 L 80 352 L 81.5 349 Q 85.7 350.1 84 346 Z "></path><path fill="rgb(1,0,3)" stroke="rgb(1,0,3)" stroke-width="1" opacity="1" d="M 326 352 L 328 352.5 L 328 384 L 326 383.5 L 326 352 Z "></path><path fill="rgb(1,0,3)" stroke="rgb(1,0,3)" stroke-width="1" opacity="1" d="M 165 355 L 168 356.5 L 165 357 L 165 355 Z "></path><path fill="rgb(1,0,3)" stroke="rgb(1,0,3)" stroke-width="1" opacity="1" d="M 100.5 361 L 105 362 L 102.5 367 L 99 365.5 Q 98.3 361.8 100.5 361 Z "></path><path fill="rgb(1,0,3)" stroke="rgb(1,0,3)" stroke-width="1" opacity="1" d="M 112 366 Q 115 365 114 368 Q 111 369 112 366 Z "></path><path fill="rgb(1,0,3)" stroke="rgb(1,0,3)" stroke-width="1" opacity="1" d="M 177 368 Q 181.1 366.7 180 370 Q 175.9 371.3 177 368 Z "></path><path fill="rgb(1,0,3)" stroke="rgb(1,0,3)" stroke-width="1" opacity="1" d="M 115.5 369 L 118 369.5 L 115.5 370 L 115.5 369 Z "></path><path fill="rgb(1,0,3)" stroke="rgb(1,0,3)" stroke-width="1" opacity="1" d="M 189 370 L 193 370.5 L 192 374 Q 187.1 375.6 189 370 Z "></path><path fill="rgb(1,0,3)" stroke="rgb(1,0,3)" stroke-width="1" opacity="1" d="M 120.5 373 L 125 375.5 L 122.5 377 L 120 376 L 120.5 373 Z "></path><path fill="rgb(1,0,3)" stroke="rgb(1,0,3)" stroke-width="1" opacity="1" d="M 113.5 374 Q 117.3 372.8 116 376.5 L 112 379 Q 111 375.2 113.5 374 Z "></path><path fill="rgb(1,0,3)" stroke="rgb(1,0,3)" stroke-width="1" opacity="1" d="M 128 378 L 131 379.5 Q 132.1 383.7 128 382 L 128 378 Z "></path><path fill="rgb(1,0,3)" stroke="rgb(1,0,3)" stroke-width="1" opacity="1" d="M 115 382 L 121.5 382 L 122 384 L 115.5 384 L 115 382 Z "></path><path fill="rgb(1,0,3)" stroke="rgb(1,0,3)" stroke-width="1" opacity="1" d="M 132.5 382 L 133.5 384 L 130 383.5 L 132.5 382 Z "></path><path fill="rgb(1,0,3)" stroke="rgb(1,0,3)" stroke-width="1" opacity="1" d="M 197.5 383 L 201 384.5 Q 200.3 386.8 196.5 386 L 195.5 384 L 197.5 383 Z "></path><path fill="rgb(1,0,3)" stroke="rgb(1,0,3)" stroke-width="1" opacity="1" d="M 365.5 384 L 366 400 L 364 399.5 L 364 385.5 L 365.5 384 Z "></path><path fill="rgb(1,0,3)" stroke="rgb(1,0,3)" stroke-width="1" opacity="1" d="M 327.5 386 L 328 394.5 L 326 395.5 L 326 387.5 L 327.5 386 Z "></path><path fill="rgb(1,0,3)" stroke="rgb(1,0,3)" stroke-width="1" opacity="1" d="M 204 388 L 206 388 L 208 392 L 204 389.5 L 204 388 Z "></path><path fill="rgb(1,0,3)" stroke="rgb(1,0,3)" stroke-width="1" opacity="1" d="M 322.5 389 L 324 394.5 L 322.5 397 L 322.5 389 Z "></path><path fill="rgb(1,0,3)" stroke="rgb(1,0,3)" stroke-width="1" opacity="1" d="M 147.5 394 Q 151.3 392.8 150 396.5 Q 148 400 146 395.5 L 147.5 394 Z "></path><path fill="rgb(1,0,3)" stroke="rgb(1,0,3)" stroke-width="1" opacity="1" d="M 160.5 402 L 163.5 402 L 195.5 429 L 201 432 Q 199.9 434.7 202.5 434 L 229 456.5 L 227.5 456 Q 225.3 455.3 226 457.5 Q 223.3 458.6 224 462 L 220 459.5 L 224 458 L 225 454.5 L 218 451.5 Q 220.5 450 217 448.5 Q 217.8 445.9 214.5 447 L 211 448 L 212 445.5 L 212 443.5 L 209.5 441 L 204 440 L 204 437 L 202 437 Q 203.1 434.3 200.5 435 L 195 433.5 L 198 431.5 L 187 423.5 L 184.5 420 L 181 421.5 L 182 424 L 185.5 425 L 194 431.5 L 188 432 L 187 429.5 L 187.5 428 L 179 424 Q 180.1 420.7 176 422 L 176 419 L 178.5 418 L 181 419 Q 182.1 416.3 179.5 417 L 174.5 412 L 171 412 L 169.5 408 Q 166.2 409.1 167 406.5 Q 166.5 403.5 162.5 404 L 160 405.5 L 161 403.5 L 160.5 402 Z "></path><path fill="rgb(1,0,3)" stroke="rgb(1,0,3)" stroke-width="1" opacity="1" d="M 219 402 Q 222.7 400.5 222 403.5 L 224 406.5 L 222 405.5 Q 222.7 402.5 219 404 L 219 402 Z "></path><path fill="rgb(1,0,3)" stroke="rgb(1,0,3)" stroke-width="1" opacity="1" d="M 324 403 Q 327.3 401.7 326 406.5 L 329 407.5 Q 326.7 408.8 329.5 410 Q 334.3 408.7 333 412 Q 325.8 413.5 324 408.5 L 324 403 Z "></path><path fill="rgb(1,0,3)" stroke="rgb(1,0,3)" stroke-width="1" opacity="1" d="M 164.5 408 L 166 409.5 L 162.5 413 Q 158.3 414.1 160 410 L 164.5 408 Z "></path><path fill="rgb(1,0,3)" stroke="rgb(1,0,3)" stroke-width="1" opacity="1" d="M 346.5 412 Q 353.4 410 352 414 L 345 413.5 L 346.5 412 Z "></path><path fill="rgb(1,0,3)" stroke="rgb(1,0,3)" stroke-width="1" opacity="1" d="M 168.5 413 L 170 413.5 L 168 414 Q 169.3 417 165.5 416 L 165.5 415 L 168.5 413 Z "></path><path fill="rgb(1,0,3)" stroke="rgb(1,0,3)" stroke-width="1" opacity="1" d="M 320 413 Q 324.5 411.5 323 416 Q 318.5 417.5 320 413 Z "></path><path fill="rgb(1,0,3)" stroke="rgb(1,0,3)" stroke-width="1" opacity="1" d="M 337 414 Q 340 413 339 416 Q 336 417 337 414 Z "></path><path fill="rgb(1,0,3)" stroke="rgb(1,0,3)" stroke-width="1" opacity="1" d="M 176 427 L 179 428.5 Q 179.7 431.5 176 430 L 176 427 Z "></path><path fill="rgb(1,0,3)" stroke="rgb(1,0,3)" stroke-width="1" opacity="1" d="M 194.5 439 L 197.5 439 L 203 443 Q 204.7 448.2 201 447 L 199.5 443 L 193 440.5 L 194.5 439 Z "></path><path fill="rgb(1,0,3)" stroke="rgb(1,0,3)" stroke-width="1" opacity="1" d="M 210 452 L 212 452 Q 210.9 454.7 213.5 454 Q 215 457.5 216.5 455 L 218 455.5 L 216 456.5 Q 219.8 458.3 216.5 460 L 213 458.5 L 212 454 Q 209 455 210 452 Z "></path><path fill="rgb(1,0,3)" stroke="rgb(1,0,3)" stroke-width="1" opacity="1" d="M 226 460 L 231 461.5 L 229 462 Q 230.3 465.3 225.5 464 L 226 462.5 L 226 460 Z "></path><path fill="rgb(1,0,3)" stroke="rgb(1,0,3)" stroke-width="1" opacity="1" d="M 265.5 470 Q 270.3 468.3 269 472.5 Q 267.4 475.5 262 474 L 263.5 471 L 265.5 470 Z "></path><path fill="rgb(1,0,3)" stroke="rgb(1,0,3)" stroke-width="1" opacity="1" d="M 240 473 Q 244.6 471.8 246 474.5 L 240 476 L 240 473 Z "></path><path fill="rgb(1,0,3)" stroke="rgb(1,0,3)" stroke-width="1" opacity="1" d="M 270.5 477 Q 273.5 476.2 272 480 Q 266.8 481.7 268 478 L 270.5 477 Z "></path><path fill="rgb(13,2,31)" stroke="rgb(13,2,31)" stroke-width="1" opacity="1" d="M 247.5 36 L 258.5 38 L 282 57 Q 280.9 59.7 283.5 59 L 288 62.5 Q 287.3 64.8 289.5 64 L 353.5 117 L 360 121 Q 358.9 123.7 361.5 123 L 376 134 Q 374.9 136.7 377.5 136 L 400 154.5 Q 399.3 156.8 401.5 156 L 448 193 Q 446.9 195.7 449.5 195 L 454 200.5 L 456 208.5 L 455 213.5 L 449.5 220 L 441.5 224 L 437.5 224 L 437.5 223 L 448 220 Q 446.9 217.3 449.5 218 L 454 212.5 L 454 203.5 Q 452.6 197.4 447.5 195 L 442 192 Q 443.1 189.3 440.5 190 L 408 164 Q 409.1 161.3 406.5 162 L 369.5 131 L 364 128 Q 365.1 125.3 362.5 126 L 320 92 Q 321.1 89.3 318.5 90 L 303.5 77 L 298 74 Q 299.1 71.3 296.5 72 L 259 42 Q 260.3 39 256.5 40 L 254.5 38 L 248.5 37 L 240 41.5 L 236.5 48 L 236 45.5 L 241.5 38 L 247.5 36 Z "></path><path fill="rgb(13,2,31)" stroke="rgb(13,2,31)" stroke-width="1" opacity="1" d="M 235.5 49 L 236 208.5 L 235 208.5 L 235.5 49 Z "></path><path fill="rgb(13,2,31)" stroke="rgb(13,2,31)" stroke-width="1" opacity="1" d="M 264 81 L 268 82 Q 266.9 84.7 269.5 84 L 278 90 Q 276.9 92.7 279.5 92 L 302 110 Q 300.9 112.7 303.5 112 L 328.5 133 L 334 136 Q 332.9 138.7 335.5 138 L 385.5 180 L 392 184 Q 390.9 186.7 393.5 186 L 410 199.5 L 408.5 203 L 348.5 220 L 338.5 224 L 336 226.5 L 332.5 233 L 332 229.5 L 337.5 223 L 360.5 215 L 367.5 214 L 377.5 210 L 381.5 210 L 384.5 208 L 408 202 Q 409.5 198.3 406.5 199 L 400 194 Q 401.1 191.3 398.5 192 L 390 186 L 388.5 183 L 328 134.5 Q 328.8 132.3 326.5 133 L 312 122 Q 313.1 119.3 310.5 120 L 296 109 Q 297.1 106.3 294.5 107 L 265.5 83 L 264 88.5 L 264 90.5 L 265 94.5 L 265 208.5 L 264 208.5 L 263 160.5 L 264 159.5 L 264 144.5 L 263 143.5 L 263 83.5 L 264 81 Z "></path><path fill="rgb(13,2,31)" stroke="rgb(13,2,31)" stroke-width="1" opacity="1" d="M 147.5 96 L 150 96.5 L 144 99 L 140 106.5 L 140 256.5 L 138.5 258 L 90.5 272 L 90.5 271 L 115.5 264 L 118.5 262 L 126.5 261 L 139 255.5 L 139 105.5 L 143.5 98 L 147.5 96 Z "></path><path fill="rgb(13,2,31)" stroke="rgb(13,2,31)" stroke-width="1" opacity="1" d="M 156.5 96 L 159.5 96 L 165 100.5 L 168 106.5 L 168 271.5 L 163.5 279 L 152.5 285 L 138.5 288 L 138.5 287 L 156.5 282 L 164 276.5 L 167 271.5 L 167 109.5 Q 165.8 102.8 161.5 99 L 156.5 97 L 156.5 96 Z "></path><path fill="rgb(13,2,31)" stroke="rgb(13,2,31)" stroke-width="1" opacity="1" d="M 433.5 224 L 436 224.5 L 427.5 228 L 416.5 230 L 361 247 Q 359.4 249.1 360 254.5 L 361 255.5 L 361 270.5 L 360 271.5 L 360 399.5 L 354.5 407 L 349.5 408 L 349.5 407 Q 355.1 406.6 357 402.5 L 359 399.5 L 359 247.5 L 360.5 246 L 416.5 229 L 423.5 228 L 433.5 224 Z "></path><path fill="rgb(13,2,31)" stroke="rgb(13,2,31)" stroke-width="1" opacity="1" d="M 331.5 234 L 332 396.5 L 338.5 406 Q 341.8 408.8 348 408.5 L 342.5 409 Q 336 407.5 333 402.5 L 331 397.5 L 331.5 234 Z "></path><path fill="rgb(13,2,31)" stroke="rgb(13,2,31)" stroke-width="1" opacity="1" d="M 264.5 256 L 265 319.5 L 264 319.5 L 264.5 256 Z "></path><path fill="rgb(13,2,31)" stroke="rgb(13,2,31)" stroke-width="1" opacity="1" d="M 86.5 272 L 89 272.5 L 56.5 282 Q 49.8 284.3 46 289.5 L 45 300.5 L 51.5 309 L 80 331 Q 78.9 333.7 81.5 333 L 120 364 Q 118.9 366.7 121.5 366 L 242.5 466 Q 245.8 468.7 252.5 468 Q 259 466.5 262 461.5 L 263.5 456 L 264 459.5 L 258.5 467 Q 254.5 470 246.5 469 L 240 465.5 Q 240.8 463.3 238.5 464 L 201 434 Q 202.1 431.3 199.5 432 L 167.5 405 L 162 402 Q 163.1 399.3 160.5 400 L 150 392 Q 151.1 389.3 148.5 390 L 144 387 Q 145.1 384.3 142.5 385 L 124 371 L 122.5 368 L 47 306.5 L 44 301.5 L 43 296.5 Q 45.3 295.3 44 290.5 L 49.5 284 L 55.5 281 L 86.5 272 Z "></path><path fill="rgb(13,2,31)" stroke="rgb(13,2,31)" stroke-width="1" opacity="1" d="M 235.5 273 L 236 423.5 L 233.5 422 L 224 416 Q 225.1 413.3 222.5 414 L 89 303.5 L 90.5 301 L 136.5 288 L 136.5 289 L 97.5 300 L 91 303.5 L 128 334.5 Q 127.3 336.8 129.5 336 L 149 351 Q 147.9 353.7 150.5 353 L 155 356.5 Q 154.2 359.1 157.5 358 L 232.5 421 L 235 421 L 235.5 273 Z "></path><path fill="rgb(13,2,31)" stroke="rgb(13,2,31)" stroke-width="1" opacity="1" d="M 264.5 433 L 265 446.5 L 264 446.5 L 264.5 433 Z "></path><path fill="rgb(83,33,139)" stroke="rgb(83,33,139)" stroke-width="1" opacity="1" d="M 261.5 181 L 262 301.5 L 263 302.5 L 263 456.5 Q 261.8 462.3 257.5 465 Q 254.2 468.2 246.5 467 L 240 464 L 238.5 461 L 113.5 358 L 104 352 L 100.5 347 L 95 343.5 Q 95.8 341.3 93.5 342 L 85 336 Q 86.1 333.3 83.5 334 L 77 329 Q 78.1 326.3 75.5 327 L 66 319.5 Q 66.8 317.3 64.5 318 L 48 305 Q 44.9 301.4 46 292.5 L 48 288 L 59.5 282 Q 64.1 282.6 65.5 280 L 70.5 280 L 72.5 278 L 76.5 278 L 79.5 276 L 87.5 275 L 94.5 272 L 96.5 272 L 135.5 260 Q 137 262.5 138.5 259 L 141 257.5 L 141.5 208 L 142.5 256 L 143.5 184 L 144 207.5 L 145 208.5 L 144 209.5 L 144 224.5 L 145 225.5 L 145 232 L 160 232 L 160 240.5 L 161 241.5 L 161.5 256 L 162.5 192 L 163 207.5 L 164 208.5 L 164.5 264 L 165.5 248 L 166 271 Q 162.7 269.7 164 274.5 L 153.5 282 L 146.5 283 L 134.5 288 L 120.5 292 L 116.5 292 L 88 301 Q 87 306.6 91.5 308 L 96 310 L 98.5 314 L 123.5 334 L 128 336 L 131.5 341 L 157 360 L 158.5 363 L 200.5 397 L 206 400 Q 204.9 402.7 207.5 402 L 216 408 Q 214.9 410.7 217.5 410 Q 225.1 419.4 236 424 L 237 420.5 L 236 419.5 L 236 400.5 L 237 399.5 L 237 280.5 L 238 279.5 L 238.5 200 L 239.5 248 L 240 232 L 256 232 L 256 208.5 L 257 208.5 L 257.5 250 L 258 232 L 261 231.5 L 261.5 181 Z M 146 248 L 146 249 L 160 249 L 146 248 Z M 241 248 L 241 249 L 256 249 L 241 248 Z "></path><path fill="rgb(83,33,139)" stroke="rgb(83,33,139)" stroke-width="1" opacity="1" d="M 141.5 184 L 142 206.5 L 141 206.5 L 141.5 184 Z "></path><path fill="rgb(83,33,139)" stroke="rgb(83,33,139)" stroke-width="1" opacity="1" d="M 432.5 186 L 433.5 188 Q 430.7 188.7 432.5 186 Z "></path><path fill="rgb(83,33,139)" stroke="rgb(83,33,139)" stroke-width="1" opacity="1" d="M 404.5 192 L 405.5 194 L 404.5 192 Z "></path><path fill="rgb(83,33,139)" stroke="rgb(83,33,139)" stroke-width="1" opacity="1" d="M 412.5 193 Q 417.3 191.7 416 195 Q 412.2 195.8 412.5 193 Z "></path><path fill="rgb(83,33,139)" stroke="rgb(83,33,139)" stroke-width="1" opacity="1" d="M 440 195 L 442 195.5 L 440 196.5 L 440 195 Z "></path><path fill="rgb(83,33,139)" stroke="rgb(83,33,139)" stroke-width="1" opacity="1" d="M 411 197 Q 414 196 413 199 Q 410 200 411 197 Z "></path><path fill="rgb(83,33,139)" stroke="rgb(83,33,139)" stroke-width="1" opacity="1" d="M 411.5 203 Q 414.1 202.3 413 205 L 408.5 206 L 409.5 204 L 411.5 203 Z "></path><path fill="rgb(83,33,139)" stroke="rgb(83,33,139)" stroke-width="1" opacity="1" d="M 448.5 204 Q 451.5 203.1 450 207.5 L 450 209.5 L 451 212.5 L 449.5 215 L 448.5 209 L 446.5 210 L 445.5 208 L 447.5 208 Q 450.1 208.8 449 205.5 L 448.5 204 Z "></path><path fill="rgb(83,33,139)" stroke="rgb(83,33,139)" stroke-width="1" opacity="1" d="M 452.5 205 L 453 207.5 L 452 207.5 L 452.5 205 Z "></path><path fill="rgb(83,33,139)" stroke="rgb(83,33,139)" stroke-width="1" opacity="1" d="M 407.5 207 L 408.5 209 L 403 208.5 L 407.5 207 Z "></path><path fill="rgb(83,33,139)" stroke="rgb(83,33,139)" stroke-width="1" opacity="1" d="M 431.5 208 L 433.5 208 L 440 210.5 L 436.5 212 Q 435 208.5 433.5 211 L 431 209.5 L 431.5 208 Z "></path><path fill="rgb(83,33,139)" stroke="rgb(83,33,139)" stroke-width="1" opacity="1" d="M 391.5 209 L 398 209.5 L 395.5 212 L 386 214.5 L 390 215.5 L 385.5 216 L 382.5 215 L 371.5 220 L 366.5 220 L 365.5 218 L 369 218 Q 367.9 215.3 370.5 216 L 373.5 215 L 376.5 216 L 384.5 212 L 392 211.5 L 390 210.5 L 391.5 209 Z "></path><path fill="rgb(83,33,139)" stroke="rgb(83,33,139)" stroke-width="1" opacity="1" d="M 441.5 212 L 440.5 214 L 441.5 212 Z "></path><path fill="rgb(83,33,139)" stroke="rgb(83,33,139)" stroke-width="1" opacity="1" d="M 397.5 213 L 401 214.5 Q 402.1 217.8 399.5 217 L 396 219.5 Q 395.3 221.8 397.5 221 L 401 222 Q 402 226.7 398.5 228 L 390 225.5 L 395 222.5 L 384.5 222 L 383 225 L 380 223.5 Q 378.9 220.2 381.5 221 Q 382.7 223.3 384 220.5 Q 383.2 217.9 386.5 219 L 396 215.5 L 397.5 213 Z "></path><path fill="rgb(83,33,139)" stroke="rgb(83,33,139)" stroke-width="1" opacity="1" d="M 444 214 L 448 214 L 448 215.5 L 448.5 217 L 446.5 217 L 443 216.5 L 444 214 Z "></path><path fill="rgb(83,33,139)" stroke="rgb(83,33,139)" stroke-width="1" opacity="1" d="M 431.5 216 L 432 218 L 441.5 217 L 441.5 218 L 432 220 L 431.5 216 Z "></path><path fill="rgb(83,33,139)" stroke="rgb(83,33,139)" stroke-width="1" opacity="1" d="M 433.5 216 L 437 216.5 L 433.5 217 L 433.5 216 Z "></path><path fill="rgb(83,33,139)" stroke="rgb(83,33,139)" stroke-width="1" opacity="1" d="M 360 218 L 364 218.5 L 360 220 L 360 218 Z "></path><path fill="rgb(83,33,139)" stroke="rgb(83,33,139)" stroke-width="1" opacity="1" d="M 352.5 220 L 357 220.5 L 354.5 222 L 346.5 223 L 346.5 222 Q 351.1 222.6 352.5 220 Z "></path><path fill="rgb(83,33,139)" stroke="rgb(83,33,139)" stroke-width="1" opacity="1" d="M 358.5 221 L 360.5 222 L 364.5 221 L 363.5 223 L 357 222.5 L 358.5 221 Z "></path><path fill="rgb(83,33,139)" stroke="rgb(83,33,139)" stroke-width="1" opacity="1" d="M 435.5 221 L 437 221.5 L 432.5 223 L 432.5 222 L 435.5 221 Z "></path><path fill="rgb(83,33,139)" stroke="rgb(83,33,139)" stroke-width="1" opacity="1" d="M 419.5 223 L 423 223.5 L 419.5 224 L 419.5 223 Z "></path><path fill="rgb(83,33,139)" stroke="rgb(83,33,139)" stroke-width="1" opacity="1" d="M 350.5 224 L 353 224.5 Q 350.9 227.8 350.5 224 Z "></path><path fill="rgb(83,33,139)" stroke="rgb(83,33,139)" stroke-width="1" opacity="1" d="M 408.5 224 L 416 225.5 L 404.5 229 L 402.5 231 L 397 231.5 L 400 232.5 L 378.5 239 L 376.5 238 L 374 239 Q 375.3 242.3 370.5 241 L 368.5 242 L 368.5 241 L 370 240.5 L 367.5 240 L 360 242 L 357.5 248 L 356 245.5 L 358 242 L 355 242.5 L 355 244.5 L 356.5 253 L 358 252.5 L 359 396.5 L 353.5 405 L 344.5 408 L 336 402.5 L 333 397.5 L 333 256 L 335 255.5 L 335 240.5 L 336 238.5 L 333 239.5 L 336.5 230 L 339.5 231 L 343 228.5 L 342.5 227 L 338 229 L 339.5 226 L 345 225 L 344 232 Q 349.8 233.5 351.5 230 L 353.5 232 L 378.5 232 Q 380 234.5 385.5 233 L 390.5 231 L 402.5 230 L 404 228.5 L 405 225 L 408.5 224 Z M 376 233 L 378 237 L 387 236 L 391 234 L 391 233 Q 386 232 386 235 L 380 235 L 376 233 Z M 340 234 L 339 237 L 342 237 L 342 235 L 340 234 Z M 353 240 L 355 242 Q 356 239 353 240 Z M 338 248 L 338 249 L 352 249 L 338 248 Z "></path><path fill="rgb(83,33,139)" stroke="rgb(83,33,139)" stroke-width="1" opacity="1" d="M 426.5 224 L 429 224.5 L 426.5 225 L 426.5 224 Z "></path><path fill="rgb(83,33,139)" stroke="rgb(83,33,139)" stroke-width="1" opacity="1" d="M 417.5 225 L 422 225.5 L 418.5 227 L 417.5 225 Z "></path><path fill="rgb(83,33,139)" stroke="rgb(83,33,139)" stroke-width="1" opacity="1" d="M 384.5 226 L 390 228.5 Q 387.7 230.9 383 230 L 384.5 226 Z "></path></svg>