<?xml version="1.0" standalone="no"?>
<!DOCTYPE svg PUBLIC "-//W3C//DTD SVG 20010904//EN"
 "http://www.w3.org/TR/2001/REC-SVG-20010904/DTD/svg10.dtd">
<svg version="1.0" xmlns="http://www.w3.org/2000/svg"
 width="2400.000000pt" height="2401.000000pt" viewBox="0 0 2400.000000 2401.000000"
 preserveAspectRatio="xMidYMid meet">

<g transform="translate(0.000000,2401.000000) scale(0.100000,-0.100000)"
fill="#000000" stroke="none">
<path d="M11465 23993 c-27 -1 -131 -7 -230 -13 -1247 -74 -2539 -366 -3714
-840 -1159 -467 -2238 -1113 -3205 -1919 -504 -420 -1039 -950 -1460 -1446
-2135 -2520 -3130 -5750 -2786 -9045 150 -1432 565 -2843 1216 -4130 736
-1456 1771 -2758 3028 -3809 562 -470 1212 -917 1851 -1273 1336 -745 2801
-1226 4322 -1417 218 -28 666 -71 736 -71 l27 0 0 4973 0 4972 -92 39 c-266
111 -549 308 -737 514 -382 416 -581 923 -581 1477 0 733 357 1396 971 1804
1089 723 2574 310 3140 -874 314 -658 272 -1449 -109 -2063 -231 -372 -593
-686 -978 -849 l-114 -48 0 -4972 0 -4973 28 0 c53 0 480 39 652 60 1869 224
3635 873 5199 1912 2400 1594 4146 3990 4924 6758 526 1869 585 3919 167 5818
-424 1929 -1293 3681 -2578 5199 -417 492 -955 1025 -1458 1444 -1463 1219
-3173 2067 -5008 2483 -692 158 -1332 246 -2076 286 -163 9 -1003 11 -1135 3z"/>
</g>
</svg>
